<?xml version="1.0" standalone="no"?>
<!DOCTYPE svg PUBLIC "-//W3C//DTD SVG 20010904//EN"
 "http://www.w3.org/TR/2001/REC-SVG-20010904/DTD/svg10.dtd">
<svg version="1.0" xmlns="http://www.w3.org/2000/svg"
 width="640.000000pt" height="640.000000pt" viewBox="0 0 640.000000 640.000000"
 preserveAspectRatio="xMidYMid meet">

<g transform="translate(0.000000,640.000000) scale(0.100000,-0.100000)"
fill="#000000" stroke="none">
<path d="M0 3200 l0 -3200 1120 0 1120 0 0 80 c0 73 2 80 20 80 18 0 20 -7 20
-80 l0 -80 80 0 80 0 0 120 c0 73 -4 120 -10 120 -5 0 -10 18 -10 40 0 39 -1
40 -35 40 -34 0 -35 -1 -35 -40 0 -29 -4 -40 -15 -40 -9 0 -15 9 -15 25 0 23
-4 25 -40 25 -29 0 -40 4 -40 15 0 10 -8 14 -22 11 -26 -4 -58 10 -58 25 0 16
47 59 65 59 9 0 15 -9 15 -24 0 -13 3 -31 6 -40 7 -17 34 -22 34 -6 0 6 -7 10
-15 10 -8 0 -15 9 -15 20 0 11 7 20 15 20 8 0 15 5 15 10 0 6 -9 10 -20 10
-14 0 -20 7 -20 24 0 35 -10 56 -26 56 -8 0 -14 5 -14 10 0 6 -4 10 -10 10 -5
0 -10 -9 -10 -20 0 -15 7 -20 25 -20 18 0 25 -5 25 -20 0 -13 -7 -20 -20 -20
-45 0 -93 -85 -60 -105 6 -3 10 -40 10 -81 0 -67 -2 -74 -20 -74 -19 0 -20 7
-20 120 0 113 -1 120 -20 120 -17 0 -20 7 -20 40 0 29 -4 40 -15 40 -11 0 -15
11 -15 40 0 36 -2 40 -25 40 -22 0 -25 4 -25 40 0 25 -5 40 -12 40 -10 0 -10
2 -1 8 9 6 7 12 -7 22 -16 12 -20 26 -20 72 0 53 -2 58 -21 58 -21 0 -22 3
-16 74 3 43 1 78 -5 84 -5 5 -25 8 -44 5 l-34 -5 0 81 c0 74 -2 81 -20 81 -17
0 -20 7 -20 40 l0 40 -60 0 -60 0 0 80 c0 73 -2 80 -20 80 -17 0 -20 7 -20 40
l0 40 -40 0 c-40 0 -40 0 -40 40 l0 39 -57 3 -58 3 -3 37 c-3 30 -7 38 -23 38
-17 0 -19 7 -19 59 0 32 -3 86 -6 120 l-7 61 -34 0 c-34 0 -34 1 -33 37 3 58
1 63 -19 63 -34 0 -33 18 2 29 25 9 29 14 17 21 -13 8 -12 10 3 10 18 0 24 25
7 35 -5 3 -11 16 -11 28 -1 17 -2 18 -6 5 -2 -10 -9 -18 -15 -18 -6 0 -8 -12
-4 -27 3 -16 3 -22 0 -15 -3 6 -10 10 -15 6 -11 -7 -11 7 0 25 11 16 -11 43
-30 39 -9 -2 -12 10 -10 40 2 37 0 42 -18 42 -18 0 -21 6 -21 40 0 34 3 40 21
40 24 0 21 23 -4 28 -10 2 -17 -3 -17 -12 0 -9 -7 -16 -15 -16 -11 0 -15 11
-15 40 0 35 -3 40 -23 40 -20 0 -23 4 -19 35 2 19 8 36 13 36 5 1 14 3 19 4 6
1 17 3 25 4 8 0 15 8 15 16 0 11 -11 15 -40 15 -22 0 -40 5 -40 10 0 6 18 10
40 10 29 0 40 4 40 15 0 8 9 15 20 15 23 0 26 10 8 28 -18 18 -28 15 -28 -8 0
-11 -7 -20 -15 -20 -11 0 -15 11 -15 40 0 36 -2 40 -25 40 -22 0 -25 4 -25 40
0 29 -4 40 -15 40 -12 0 -15 20 -15 120 0 86 -3 120 -12 120 -6 0 -2 9 10 20
12 11 24 20 27 20 3 0 5 -9 5 -20 0 -15 7 -20 25 -20 18 0 25 5 25 20 0 11 -5
20 -11 20 -6 0 -8 9 -4 20 5 16 2 20 -14 20 -18 0 -21 6 -21 40 0 37 2 40 28
40 33 0 52 35 52 97 0 41 1 43 30 43 20 0 30 -5 30 -15 0 -27 18 -16 22 13 4
25 1 28 -19 24 -27 -5 -29 3 -7 25 13 14 17 14 25 2 6 -10 9 -6 11 16 1 17 5
-8 8 -55 l6 -85 3 80 c3 71 4 76 11 40 5 -22 8 -290 7 -595 0 -438 2 -559 12
-575 7 -12 34 -31 60 -43 25 -12 71 -38 101 -57 30 -18 75 -43 100 -55 l45
-21 -25 -15 c-16 -10 -18 -13 -5 -8 31 11 53 7 83 -15 16 -11 60 -36 100 -55
39 -20 74 -41 77 -46 11 -18 52 -10 91 17 22 16 56 37 77 47 20 11 37 22 37
26 0 5 10 11 23 14 12 3 33 15 47 26 20 16 14 15 -25 -5 -27 -14 -68 -37 -90
-51 -22 -13 -55 -31 -72 -39 -18 -9 -33 -19 -33 -24 0 -17 -37 -5 -110 37 -41
23 -82 47 -90 52 -15 10 -240 141 -332 194 l-48 27 0 1068 c0 843 3 1071 13
1079 10 8 253 149 297 173 8 4 80 46 160 92 80 46 300 173 490 282 190 109
467 268 615 353 149 85 275 155 280 155 6 0 120 -65 255 -143 135 -79 316
-184 402 -234 87 -50 158 -93 158 -96 0 -6 -22 -18 -375 -223 -137 -79 -401
-232 -585 -339 -184 -107 -380 -221 -435 -253 -55 -32 -154 -89 -220 -128 -66
-38 -151 -88 -190 -110 -38 -22 -82 -48 -97 -58 -15 -11 -30 -19 -32 -19 -3 0
-29 -14 -57 -31 l-51 -32 7 -196 c4 -108 9 -198 11 -200 2 -2 4 84 4 192 0
184 1 197 19 207 13 7 22 7 26 0 3 -6 0 -13 -9 -16 -8 -3 -13 -16 -12 -30 3
-28 16 -45 16 -21 0 16 12 22 34 18 4 -1 14 3 22 10 15 12 37 3 28 -13 -4 -7
-9 -7 -13 1 -4 6 -11 3 -19 -9 -11 -19 -9 -20 28 -20 29 0 40 -4 40 -15 0 -11
11 -15 39 -15 22 0 44 6 51 15 14 17 40 20 40 5 0 -5 -5 -10 -11 -10 -5 0 -8
-4 -4 -9 3 -5 -3 -12 -12 -14 -12 -3 -8 -5 9 -6 15 0 33 -8 42 -16 8 -9 17
-15 18 -15 2 1 16 -3 31 -9 16 -6 33 -9 38 -5 5 3 9 3 9 1 0 -3 -16 -15 -37
-27 -29 -17 -38 -18 -44 -8 -6 9 -9 8 -10 -7 0 -11 -3 -15 -5 -8 -3 7 0 21 6
33 16 29 -12 38 -40 12 l-22 -20 21 -11 c41 -23 29 -34 -124 -119 -65 -36 -77
-44 -71 -49 5 -5 115 52 126 66 3 3 28 17 55 32 28 14 145 79 260 146 116 66
336 193 490 280 154 88 341 195 415 238 74 43 155 89 180 103 25 14 88 50 140
80 52 30 151 87 220 127 69 39 186 107 260 150 74 43 151 87 170 97 l35 20
313 -183 312 -183 0 -313 0 -312 -72 -42 c-40 -23 -140 -81 -223 -129 -82 -47
-242 -140 -355 -205 -113 -65 -257 -149 -320 -186 -63 -37 -225 -131 -360
-209 -356 -206 -497 -289 -565 -330 -33 -20 -94 -56 -135 -79 -41 -23 -119
-68 -172 -99 -54 -31 -146 -85 -205 -119 -60 -34 -117 -69 -128 -78 l-20 -15
20 7 c11 4 40 19 65 34 25 15 81 46 125 69 44 24 82 46 85 49 11 14 73 41 79
35 3 -4 0 -9 -7 -11 -6 -3 -10 -9 -7 -14 4 -5 -2 -6 -11 -2 -12 4 -15 3 -10
-5 9 -14 36 -16 36 -3 0 6 8 9 18 9 9 -1 28 2 42 5 l25 7 -25 -13 c-23 -11
-25 -17 -25 -89 0 -43 -4 -78 -8 -78 -5 0 -5 -5 -2 -10 3 -5 2 -10 -3 -10 -6
0 -12 7 -16 15 -4 11 -11 13 -30 5 -21 -8 -24 -7 -19 7 5 13 2 15 -15 11 -11
-3 -30 0 -41 8 -18 13 -48 10 -61 -6 -3 -3 -35 -20 -72 -38 -37 -18 -73 -38
-80 -45 -7 -7 -33 -23 -58 -36 -25 -13 -76 -43 -115 -66 -38 -23 -77 -45 -85
-48 -8 -4 -31 -17 -50 -28 -19 -12 -51 -30 -70 -40 -19 -11 -28 -19 -20 -19
12 0 171 86 240 130 22 14 187 108 250 143 30 16 59 34 64 38 17 15 34 10 101
-31 36 -22 70 -40 75 -40 6 0 10 -3 10 -7 0 -5 29 -24 65 -42 36 -19 65 -40
65 -46 0 -10 -15 -21 -74 -54 -17 -10 -76 -44 -131 -76 -55 -32 -122 -72 -150
-87 -27 -16 -72 -42 -100 -59 -27 -16 -61 -34 -75 -40 -14 -6 -33 -18 -42 -26
-16 -14 -20 -14 -36 -2 -9 9 -51 32 -92 53 -41 21 -86 46 -100 55 -14 9 -38
23 -55 29 l-30 13 23 -19 c13 -10 45 -29 70 -43 26 -13 54 -29 62 -35 8 -6 31
-17 50 -24 19 -8 37 -16 40 -20 13 -15 60 -39 60 -31 0 5 12 14 28 20 26 11
62 31 72 41 3 3 24 14 48 24 23 11 47 25 53 33 7 7 21 11 33 8 12 -3 15 -2 8
1 -12 6 67 64 93 68 5 1 26 12 45 24 37 23 56 21 24 -3 -10 -8 -14 -15 -7 -15
6 0 15 5 18 10 3 6 17 10 31 10 13 0 24 5 24 11 0 6 -9 8 -20 4 -11 -3 -20 -2
-20 3 0 15 43 23 52 9 15 -23 8 -37 -19 -38 -18 -1 -22 -3 -10 -6 15 -4 11
-10 -19 -34 -20 -16 -43 -29 -50 -29 -8 0 -14 -5 -14 -11 0 -6 -7 -8 -16 -5
-8 3 -13 2 -10 -3 7 -11 -81 -54 -116 -55 -26 -1 -42 -16 -16 -16 9 0 9 -3 0
-12 -8 -8 -15 -8 -27 2 -8 7 -18 10 -22 6 -3 -3 0 -6 8 -6 12 0 11 -2 -1 -11
-13 -9 -12 -10 3 -5 11 3 16 2 12 -4 -3 -6 -11 -10 -17 -10 -14 0 -176 -96
-196 -116 -19 -20 -6 -35 74 -79 36 -20 62 -40 59 -45 -3 -5 0 -12 6 -16 8 -4
9 -3 5 4 -12 19 5 13 79 -27 39 -21 69 -43 68 -49 -2 -6 3 -9 11 -6 8 3 17 1
21 -5 3 -6 1 -11 -6 -11 -10 0 -10 -3 -1 -12 10 -10 15 -10 22 2 11 17 13 9
10 -33 -2 -33 22 -55 60 -58 24 -2 24 -2 3 -6 -34 -7 -29 -33 6 -33 20 0 30 6
34 20 3 10 0 21 -7 24 -6 3 0 3 13 0 16 -4 21 -3 17 5 -10 16 -2 14 41 -10 50
-27 66 -44 34 -34 -16 5 -21 4 -17 -4 4 -5 23 -13 44 -17 l37 -7 -34 -14 c-31
-13 -33 -16 -18 -30 13 -13 19 -14 31 -4 10 9 16 9 21 1 5 -8 12 -5 22 7 13
17 13 16 3 -5 -6 -12 -15 -20 -21 -17 -5 4 -9 1 -9 -4 0 -6 -9 -11 -20 -11
-26 0 -26 -17 0 -25 34 -11 22 -25 -20 -25 l-40 0 0 -60 c0 -33 -4 -60 -9 -60
-5 0 -19 14 -31 30 -28 39 -40 38 -40 -5 0 -19 -4 -35 -10 -35 -5 0 -10 -13
-10 -30 0 -23 4 -30 20 -30 11 0 20 -4 20 -10 0 -5 -4 -10 -10 -10 -5 0 -10
-18 -10 -40 0 -29 -4 -40 -15 -40 -11 0 -15 -11 -15 -40 0 -29 4 -40 15 -40
11 0 15 11 15 40 l0 40 40 0 40 0 0 -80 0 -80 40 0 40 0 0 -240 0 -240 1625 0
1625 0 0 41 0 41 29 -31 c34 -37 81 -43 81 -11 0 13 -7 20 -19 20 -10 0 -22 7
-25 16 -9 24 -7 31 4 14 7 -11 10 -4 10 28 0 38 -2 42 -25 42 -22 0 -25 4 -25
40 l0 40 40 0 40 0 0 3080 0 3080 -3200 0 -3200 0 0 -3200z m2093 430 c-13 -5
-23 -14 -23 -20 0 -6 -5 -8 -10 -5 -17 10 9 35 34 34 21 0 21 0 -1 -9z m320
-147 c-7 -2 -21 -2 -30 0 -10 3 -4 5 12 5 17 0 24 -2 18 -5z m10 -40 c-7 -2
-21 -2 -30 0 -10 3 -4 5 12 5 17 0 24 -2 18 -5z m-1106 -145 c-2 -13 -4 -3 -4
22 0 25 2 35 4 23 2 -13 2 -33 0 -45z m3743 -801 l0 -434 -22 -11 c-29 -14
-83 -45 -310 -178 -101 -58 -239 -139 -308 -178 -568 -328 -876 -508 -1109
-645 l-104 -61 -56 32 c-104 58 -116 65 -191 110 -41 24 -82 47 -90 51 -8 4
-37 21 -65 37 -27 17 -57 34 -65 37 -8 4 -19 11 -25 15 -18 15 -235 137 -255
143 -47 15 -21 36 185 150 28 16 244 138 480 273 594 338 754 429 1025 582
129 73 269 153 310 177 354 205 577 331 588 332 9 1 12 -92 12 -432z m-2090
-167 c0 -5 -5 -10 -11 -10 -5 0 -7 5 -4 10 3 6 8 10 11 10 2 0 4 -4 4 -10z
m-10 -24 c0 -2 -11 -6 -25 -8 -13 -3 -22 -1 -19 3 5 9 44 13 44 5z m-31 -29
c14 4 14 3 1 -6 -21 -15 -37 -14 -37 4 0 10 4 12 10 6 5 -5 17 -7 26 -4z m-54
-207 c-3 -5 -12 -10 -18 -10 -7 0 -6 4 3 10 19 12 23 12 15 0z m159 -95 c3 -8
3 -15 0 -15 -3 0 -12 7 -20 15 -13 13 -13 15 -1 15 8 0 17 -7 21 -15z m-1594
-516 c0 -5 -4 -9 -10 -9 -5 0 -10 7 -10 16 0 8 5 12 10 9 6 -3 10 -10 10 -16z
m77 -241 c-2 -13 -4 -3 -4 22 0 25 2 35 4 23 2 -13 2 -33 0 -45z m1337 -45
c20 -10 36 -21 36 -25 0 -10 -29 -3 -42 10 -16 16 -35 15 -41 0 -3 -7 -6 -3
-6 10 -1 27 7 27 53 5z m-9 -33 c3 -5 -1 -10 -9 -10 -9 0 -16 5 -16 10 0 6 4
10 9 10 6 0 13 -4 16 -10z m-1085 -40 c0 -24 -6 -25 -26 -6 -19 20 -18 26 6
26 13 0 20 -7 20 -20z m1317 -56 c-3 -3 -12 -4 -19 -1 -8 3 -5 6 6 6 11 1 17
-2 13 -5z m-1317 -19 c0 -11 -11 -15 -40 -15 -29 0 -40 4 -40 15 0 11 11 15
40 15 29 0 40 -4 40 -15z m1385 -25 c3 -5 -1 -10 -9 -10 -9 0 -16 5 -16 10 0
6 4 10 9 10 6 0 13 -4 16 -10z m105 -30 c18 -12 2 -12 -25 0 -13 6 -15 9 -5 9
8 0 22 -4 30 -9z m-1384 -64 c19 -20 18 -26 -6 -26 -13 0 -20 7 -20 20 0 24 6
25 26 6z m1174 -96 c0 -5 9 -10 20 -10 24 0 25 -6 6 -26 -20 -19 -26 -18 -26
6 0 16 -7 20 -30 20 -16 0 -30 5 -30 10 0 6 14 10 30 10 17 0 30 -4 30 -10z
m-80 -20 c0 -5 -4 -10 -10 -10 -5 0 -10 5 -10 10 0 6 5 10 10 10 6 0 10 -4 10
-10z m-960 -430 c0 -29 -4 -40 -15 -40 -11 0 -15 11 -15 40 0 29 4 40 15 40
11 0 15 -11 15 -40z"/>
<path d="M2050 3211 c0 -5 -13 -12 -30 -16 -28 -6 -47 -21 -38 -31 6 -6 88 39
88 49 0 4 -4 7 -10 7 -5 0 -10 -4 -10 -9z"/>
<path d="M1303 2735 c0 -38 2 -53 4 -32 2 20 2 52 0 70 -2 17 -4 1 -4 -38z"/>
<path d="M1120 2700 c0 -24 6 -25 26 -6 19 20 18 26 -6 26 -13 0 -20 -7 -20
-20z"/>
<path d="M1200 2600 c0 -29 4 -40 15 -40 11 0 15 11 15 40 0 29 -4 40 -15 40
-11 0 -15 -11 -15 -40z"/>
<path d="M1283 2520 c0 -25 2 -35 4 -22 2 12 2 32 0 45 -2 12 -4 2 -4 -23z"/>
<path d="M1303 2520 c0 -25 2 -35 4 -22 2 12 2 32 0 45 -2 12 -4 2 -4 -23z"/>
<path d="M1304 2280 c0 -69 1 -97 3 -62 2 34 2 90 0 125 -2 34 -3 6 -3 -63z"/>
<path d="M1276 2168 c-8 -32 -7 -78 2 -78 4 0 7 23 8 50 1 56 -1 60 -10 28z"/>
<path d="M2428 2041 c-25 -16 -55 -32 -67 -36 -11 -3 -21 -11 -21 -16 0 -5 -5
-9 -11 -9 -14 0 -151 -81 -146 -87 5 -4 59 24 107 56 42 27 62 39 128 72 34
18 62 36 62 41 0 12 -1 11 -52 -21z"/>
<path d="M1350 2010 c0 -5 5 -10 10 -10 6 0 10 5 10 10 0 6 -4 10 -10 10 -5 0
-10 -4 -10 -10z"/>
<path d="M1335 1950 c3 -5 10 -10 16 -10 5 0 9 5 9 10 0 6 -7 10 -16 10 -8 0
-12 -4 -9 -10z"/>
<path d="M1460 1950 c8 -6 24 -16 35 -22 20 -11 20 -11 1 11 -11 11 -26 21
-35 21 -14 0 -14 -2 -1 -10z"/>
<path d="M1440 1891 c0 -26 16 -35 24 -15 10 25 7 34 -9 34 -8 0 -15 -9 -15
-19z"/>
<path d="M2872 1753 c-6 -3 -10 -8 -7 -13 3 -5 -8 -11 -25 -15 -16 -4 -30 -11
-30 -16 0 -12 17 -12 25 1 3 6 13 10 21 10 18 0 48 27 37 33 -5 2 -14 2 -21 0z"/>
<path d="M2780 1730 c-13 -8 -12 -10 3 -10 9 0 17 5 17 10 0 12 -1 12 -20 0z"/>
<path d="M2750 1670 c-14 -11 -20 -20 -15 -19 13 0 50 28 44 33 -2 3 -15 -4
-29 -14z"/>
<path d="M2478 1513 c7 -3 16 -2 19 1 4 3 -2 6 -13 5 -11 0 -14 -3 -6 -6z"/>
<path d="M2911 1084 c-16 -19 -15 -20 32 -27 33 -5 36 -4 22 9 -8 9 -15 20
-15 25 0 14 -23 10 -39 -7z"/>
<path d="M2935 992 c-4 -10 0 -12 11 -8 8 3 18 6 20 6 2 0 4 4 4 8 0 15 -29 9
-35 -6z"/>
<path d="M2000 795 c0 -3 16 -21 35 -40 19 -19 37 -35 40 -35 3 0 5 18 5 40
l0 40 -40 0 c-22 0 -40 -2 -40 -5z"/>
<path d="M2080 610 c0 -16 5 -30 10 -30 6 0 10 14 10 30 0 17 -4 30 -10 30 -5
0 -10 -13 -10 -30z"/>
<path d="M2140 610 c0 -16 5 -30 10 -30 6 0 10 14 10 30 0 17 -4 30 -10 30 -5
0 -10 -13 -10 -30z"/>
<path d="M2400 600 c0 -29 4 -40 15 -40 11 0 15 11 15 40 0 29 -4 40 -15 40
-11 0 -15 -11 -15 -40z"/>
<path d="M2832 620 c0 -14 2 -19 5 -12 2 6 2 18 0 25 -3 6 -5 1 -5 -13z"/>
<path d="M2180 550 c0 -5 5 -10 10 -10 6 0 10 5 10 10 0 6 -4 10 -10 10 -5 0
-10 -4 -10 -10z"/>
<path d="M2800 465 c0 -20 44 -65 64 -65 15 0 32 53 21 70 -3 5 -24 10 -46 10
-28 0 -39 -4 -39 -15z"/>
<path d="M2800 305 c0 -87 8 -113 26 -84 9 15 -6 179 -17 179 -5 0 -9 -43 -9
-95z"/>
<path d="M2460 280 c0 -22 5 -40 10 -40 6 0 10 18 10 40 0 22 -4 40 -10 40 -5
0 -10 -18 -10 -40z"/>
<path d="M2640 280 c0 -29 4 -40 15 -40 11 0 15 11 15 40 0 29 -4 40 -15 40
-11 0 -15 -11 -15 -40z"/>
<path d="M6372 185 c-11 -13 -9 -15 8 -15 11 0 20 7 20 15 0 19 -11 19 -28 0z"/>
<path d="M2720 40 c0 -29 4 -40 15 -40 11 0 15 11 15 40 0 29 -4 40 -15 40
-11 0 -15 -11 -15 -40z"/>
</g>
</svg>
